<svg width="37" height="37" viewBox="0 0 37 37" fill="none" xmlns="http://www.w3.org/2000/svg">
<path d="M18.5 37C8.28024 37 0 28.7198 0 18.5C0 8.28024 8.28024 0 18.5 0C28.7198 0 37 8.28024 37 18.5C37 28.7198 28.7198 37 18.5 37ZM27.1532 15.2177H18.5V9.92883C18.5 9.13065 17.5302 8.72782 16.9708 9.29476L8.44436 17.8659C8.09375 18.2165 8.09375 18.776 8.44436 19.1266L16.9708 27.6978C17.5377 28.2647 18.5 27.8619 18.5 27.0637V21.7823H27.1532C27.6456 21.7823 28.0484 21.3794 28.0484 20.8871V16.1129C28.0484 15.6206 27.6456 15.2177 27.1532 15.2177Z" fill="white"/>
</svg>
